<mxfile host="app.diagrams.net" modified="2023-04-24T08:10:01.145Z" agent="Mozilla/5.0 (Macintosh; Intel Mac OS X 10_15_7) AppleWebKit/537.36 (KHTML, like Gecko) Chrome/112.0.0.0 Safari/537.36" etag="0LW_HO7wRPzoH-7vOCFx" version="21.2.1" type="device">
  <diagram id="DcZYCBq4A_Bf8q82gAh8" name="Page-1">
    <mxGraphModel dx="1985" dy="1306" grid="1" gridSize="10" guides="1" tooltips="1" connect="1" arrows="1" fold="1" page="1" pageScale="1" pageWidth="1100" pageHeight="850" math="0" shadow="0">
      <root>
        <mxCell id="0" />
        <mxCell id="1" parent="0" />
        <mxCell id="Lyhg9dJuoTREm1i18HMX-47" value="" style="group" parent="1" vertex="1" connectable="0">
          <mxGeometry x="170" width="240" height="300" as="geometry" />
        </mxCell>
        <mxCell id="Lyhg9dJuoTREm1i18HMX-25" value="" style="endArrow=none;html=1;rounded=0;strokeWidth=3;exitX=1;exitY=0;exitDx=0;exitDy=0;entryX=0;entryY=1;entryDx=0;entryDy=0;" parent="Lyhg9dJuoTREm1i18HMX-47" source="Lyhg9dJuoTREm1i18HMX-43" target="Lyhg9dJuoTREm1i18HMX-31" edge="1">
          <mxGeometry width="50" height="50" relative="1" as="geometry">
            <mxPoint x="490" y="300" as="sourcePoint" />
            <mxPoint x="540" y="250" as="targetPoint" />
          </mxGeometry>
        </mxCell>
        <mxCell id="Lyhg9dJuoTREm1i18HMX-26" value="" style="endArrow=none;html=1;rounded=0;entryX=0.5;entryY=0;entryDx=0;entryDy=0;strokeWidth=3;" parent="Lyhg9dJuoTREm1i18HMX-47" target="Lyhg9dJuoTREm1i18HMX-29" edge="1">
          <mxGeometry width="50" height="50" relative="1" as="geometry">
            <mxPoint x="40" y="146" as="sourcePoint" />
            <mxPoint x="540" y="250" as="targetPoint" />
          </mxGeometry>
        </mxCell>
        <mxCell id="Lyhg9dJuoTREm1i18HMX-27" value="&lt;font style=&quot;&quot;&gt;&lt;font size=&quot;1&quot; face=&quot;Times New Roman&quot; style=&quot;&quot;&gt;&lt;b style=&quot;font-size: 30px;&quot;&gt;(b)&amp;nbsp;&lt;/b&gt;&lt;/font&gt;&lt;/font&gt;" style="text;html=1;align=center;verticalAlign=middle;resizable=0;points=[];autosize=1;strokeColor=none;fillColor=none;fontSize=25;" parent="Lyhg9dJuoTREm1i18HMX-47" vertex="1">
          <mxGeometry x="-5" y="-13" width="70" height="50" as="geometry" />
        </mxCell>
        <mxCell id="Lyhg9dJuoTREm1i18HMX-28" value="&lt;font face=&quot;Times New Roman&quot; style=&quot;font-size: 25px;&quot;&gt;&lt;b&gt;X&lt;sub&gt;1&lt;/sub&gt;&lt;/b&gt;&lt;/font&gt;" style="ellipse;whiteSpace=wrap;html=1;aspect=fixed;strokeWidth=2;" parent="Lyhg9dJuoTREm1i18HMX-47" vertex="1">
          <mxGeometry y="60" width="80" height="80" as="geometry" />
        </mxCell>
        <mxCell id="Lyhg9dJuoTREm1i18HMX-29" value="&lt;font face=&quot;Times New Roman&quot;&gt;&lt;b&gt;&lt;font style=&quot;font-size: 25px;&quot;&gt;X&lt;/font&gt;&lt;font style=&quot;font-size: 20.8333px;&quot;&gt;&lt;sub&gt;2&lt;/sub&gt;&lt;/font&gt;&lt;/b&gt;&lt;/font&gt;" style="ellipse;whiteSpace=wrap;html=1;aspect=fixed;strokeWidth=2;" parent="Lyhg9dJuoTREm1i18HMX-47" vertex="1">
          <mxGeometry y="220" width="80" height="80" as="geometry" />
        </mxCell>
        <mxCell id="Lyhg9dJuoTREm1i18HMX-30" value="&lt;font face=&quot;Times New Roman&quot; style=&quot;font-size: 25px;&quot;&gt;&lt;b&gt;X&lt;sub&gt;3&lt;/sub&gt;&lt;/b&gt;&lt;/font&gt;" style="ellipse;whiteSpace=wrap;html=1;aspect=fixed;strokeWidth=2;" parent="Lyhg9dJuoTREm1i18HMX-47" vertex="1">
          <mxGeometry x="160" y="220" width="80" height="80" as="geometry" />
        </mxCell>
        <mxCell id="Lyhg9dJuoTREm1i18HMX-24" value="" style="endArrow=none;html=1;rounded=0;strokeWidth=3;exitX=1;exitY=0.5;exitDx=0;exitDy=0;entryX=0;entryY=0.5;entryDx=0;entryDy=0;" parent="Lyhg9dJuoTREm1i18HMX-47" source="Lyhg9dJuoTREm1i18HMX-29" target="Lyhg9dJuoTREm1i18HMX-30" edge="1">
          <mxGeometry width="50" height="50" relative="1" as="geometry">
            <mxPoint x="490" y="300" as="sourcePoint" />
            <mxPoint x="160" y="264" as="targetPoint" />
          </mxGeometry>
        </mxCell>
        <mxCell id="Lyhg9dJuoTREm1i18HMX-31" value="&lt;font face=&quot;Times New Roman&quot; style=&quot;font-size: 25px;&quot;&gt;&lt;b&gt;X&lt;sub&gt;4&lt;/sub&gt;&lt;/b&gt;&lt;/font&gt;" style="ellipse;whiteSpace=wrap;html=1;aspect=fixed;strokeWidth=2;" parent="Lyhg9dJuoTREm1i18HMX-47" vertex="1">
          <mxGeometry x="160" y="60" width="80" height="80" as="geometry" />
        </mxCell>
        <mxCell id="Lyhg9dJuoTREm1i18HMX-32" value="" style="ellipse;whiteSpace=wrap;html=1;aspect=fixed;fontSize=25;strokeWidth=3;" parent="Lyhg9dJuoTREm1i18HMX-47" vertex="1">
          <mxGeometry x="36" y="141" width="10" height="10" as="geometry" />
        </mxCell>
        <mxCell id="Lyhg9dJuoTREm1i18HMX-33" value="" style="ellipse;whiteSpace=wrap;html=1;aspect=fixed;fontSize=25;strokeWidth=3;" parent="Lyhg9dJuoTREm1i18HMX-47" vertex="1">
          <mxGeometry x="35" y="210" width="10" height="10" as="geometry" />
        </mxCell>
        <mxCell id="Lyhg9dJuoTREm1i18HMX-36" value="" style="ellipse;whiteSpace=wrap;html=1;aspect=fixed;fontSize=25;strokeWidth=3;" parent="Lyhg9dJuoTREm1i18HMX-47" vertex="1">
          <mxGeometry x="80" y="255" width="10" height="10" as="geometry" />
        </mxCell>
        <mxCell id="Lyhg9dJuoTREm1i18HMX-37" value="" style="ellipse;whiteSpace=wrap;html=1;aspect=fixed;fontSize=25;strokeWidth=3;" parent="Lyhg9dJuoTREm1i18HMX-47" vertex="1">
          <mxGeometry x="149" y="255" width="10" height="10" as="geometry" />
        </mxCell>
        <mxCell id="Lyhg9dJuoTREm1i18HMX-38" value="" style="ellipse;whiteSpace=wrap;html=1;aspect=fixed;fontSize=25;strokeWidth=3;" parent="Lyhg9dJuoTREm1i18HMX-47" vertex="1">
          <mxGeometry x="195" y="141" width="10" height="10" as="geometry" />
        </mxCell>
        <mxCell id="Lyhg9dJuoTREm1i18HMX-39" value="" style="ellipse;whiteSpace=wrap;html=1;aspect=fixed;fontSize=25;strokeWidth=3;" parent="Lyhg9dJuoTREm1i18HMX-47" vertex="1">
          <mxGeometry x="195" y="210" width="10" height="10" as="geometry" />
        </mxCell>
        <mxCell id="Lyhg9dJuoTREm1i18HMX-41" value="" style="ellipse;whiteSpace=wrap;html=1;aspect=fixed;fontSize=25;strokeWidth=3;" parent="Lyhg9dJuoTREm1i18HMX-47" vertex="1">
          <mxGeometry x="67" y="127" width="10" height="10" as="geometry" />
        </mxCell>
        <mxCell id="Lyhg9dJuoTREm1i18HMX-42" value="" style="ellipse;whiteSpace=wrap;html=1;aspect=fixed;fontSize=25;strokeWidth=3;" parent="Lyhg9dJuoTREm1i18HMX-47" vertex="1">
          <mxGeometry x="160" y="226" width="10" height="10" as="geometry" />
        </mxCell>
        <mxCell id="Lyhg9dJuoTREm1i18HMX-43" value="" style="ellipse;whiteSpace=wrap;html=1;aspect=fixed;fontSize=25;strokeWidth=3;" parent="Lyhg9dJuoTREm1i18HMX-47" vertex="1">
          <mxGeometry x="70" y="226" width="10" height="10" as="geometry" />
        </mxCell>
        <mxCell id="Lyhg9dJuoTREm1i18HMX-44" value="" style="ellipse;whiteSpace=wrap;html=1;aspect=fixed;fontSize=25;strokeWidth=3;" parent="Lyhg9dJuoTREm1i18HMX-47" vertex="1">
          <mxGeometry x="162" y="127" width="10" height="10" as="geometry" />
        </mxCell>
        <mxCell id="Lyhg9dJuoTREm1i18HMX-45" value="" style="endArrow=none;html=1;rounded=0;strokeWidth=3;exitX=1;exitY=1;exitDx=0;exitDy=0;entryX=0;entryY=0;entryDx=0;entryDy=0;" parent="Lyhg9dJuoTREm1i18HMX-47" source="Lyhg9dJuoTREm1i18HMX-41" target="Lyhg9dJuoTREm1i18HMX-42" edge="1">
          <mxGeometry width="50" height="50" relative="1" as="geometry">
            <mxPoint x="490" y="300" as="sourcePoint" />
            <mxPoint x="540" y="250" as="targetPoint" />
          </mxGeometry>
        </mxCell>
        <mxCell id="Lyhg9dJuoTREm1i18HMX-46" value="" style="endArrow=none;html=1;rounded=0;strokeWidth=3;exitX=0.5;exitY=1;exitDx=0;exitDy=0;entryX=0.5;entryY=0;entryDx=0;entryDy=0;" parent="Lyhg9dJuoTREm1i18HMX-47" source="Lyhg9dJuoTREm1i18HMX-38" target="Lyhg9dJuoTREm1i18HMX-39" edge="1">
          <mxGeometry width="50" height="50" relative="1" as="geometry">
            <mxPoint x="490" y="300" as="sourcePoint" />
            <mxPoint x="200" y="200" as="targetPoint" />
          </mxGeometry>
        </mxCell>
        <mxCell id="Lyhg9dJuoTREm1i18HMX-71" value="" style="group" parent="1" vertex="1" connectable="0">
          <mxGeometry x="560" width="240" height="300" as="geometry" />
        </mxCell>
        <mxCell id="yQn8MfotT0m3Hae0XQfb-28" value="" style="endArrow=classic;html=1;rounded=0;fontSize=25;entryX=0.5;entryY=0;entryDx=0;entryDy=0;strokeWidth=3;startArrow=none;" parent="Lyhg9dJuoTREm1i18HMX-71" target="yQn8MfotT0m3Hae0XQfb-25" edge="1">
          <mxGeometry width="50" height="50" relative="1" as="geometry">
            <mxPoint x="199" y="130" as="sourcePoint" />
            <mxPoint x="469" y="240" as="targetPoint" />
          </mxGeometry>
        </mxCell>
        <mxCell id="yQn8MfotT0m3Hae0XQfb-27" value="" style="endArrow=classic;html=1;rounded=0;fontSize=25;entryX=0.5;entryY=0;entryDx=0;entryDy=0;strokeWidth=3;startArrow=none;" parent="Lyhg9dJuoTREm1i18HMX-71" target="yQn8MfotT0m3Hae0XQfb-24" edge="1">
          <mxGeometry width="50" height="50" relative="1" as="geometry">
            <mxPoint x="39" y="130" as="sourcePoint" />
            <mxPoint x="469" y="240" as="targetPoint" />
          </mxGeometry>
        </mxCell>
        <mxCell id="yQn8MfotT0m3Hae0XQfb-23" value="&lt;font face=&quot;Times New Roman&quot; style=&quot;font-size: 25px;&quot;&gt;&lt;b&gt;X&lt;sub&gt;1&lt;/sub&gt;&lt;/b&gt;&lt;/font&gt;" style="ellipse;whiteSpace=wrap;html=1;aspect=fixed;strokeWidth=2;" parent="Lyhg9dJuoTREm1i18HMX-71" vertex="1">
          <mxGeometry x="-1" y="60" width="80" height="80" as="geometry" />
        </mxCell>
        <mxCell id="yQn8MfotT0m3Hae0XQfb-24" value="&lt;font face=&quot;Times New Roman&quot;&gt;&lt;b&gt;&lt;font style=&quot;font-size: 25px;&quot;&gt;X&lt;/font&gt;&lt;font style=&quot;font-size: 20.8333px;&quot;&gt;&lt;sub&gt;2&lt;/sub&gt;&lt;/font&gt;&lt;/b&gt;&lt;/font&gt;" style="ellipse;whiteSpace=wrap;html=1;aspect=fixed;strokeWidth=2;" parent="Lyhg9dJuoTREm1i18HMX-71" vertex="1">
          <mxGeometry x="-1" y="220" width="80" height="80" as="geometry" />
        </mxCell>
        <mxCell id="Lyhg9dJuoTREm1i18HMX-49" value="" style="edgeStyle=orthogonalEdgeStyle;rounded=0;orthogonalLoop=1;jettySize=auto;html=1;strokeWidth=3;" parent="Lyhg9dJuoTREm1i18HMX-71" source="yQn8MfotT0m3Hae0XQfb-23" target="yQn8MfotT0m3Hae0XQfb-24" edge="1">
          <mxGeometry relative="1" as="geometry" />
        </mxCell>
        <mxCell id="yQn8MfotT0m3Hae0XQfb-25" value="&lt;font face=&quot;Times New Roman&quot; style=&quot;font-size: 25px;&quot;&gt;&lt;b&gt;X&lt;sub&gt;3&lt;/sub&gt;&lt;/b&gt;&lt;/font&gt;" style="ellipse;whiteSpace=wrap;html=1;aspect=fixed;strokeWidth=2;" parent="Lyhg9dJuoTREm1i18HMX-71" vertex="1">
          <mxGeometry x="159" y="220" width="80" height="80" as="geometry" />
        </mxCell>
        <mxCell id="yQn8MfotT0m3Hae0XQfb-26" value="&lt;font face=&quot;Times New Roman&quot; style=&quot;font-size: 25px;&quot;&gt;&lt;b&gt;X&lt;sub&gt;4&lt;/sub&gt;&lt;/b&gt;&lt;/font&gt;" style="ellipse;whiteSpace=wrap;html=1;aspect=fixed;strokeWidth=2;" parent="Lyhg9dJuoTREm1i18HMX-71" vertex="1">
          <mxGeometry x="159" y="60" width="80" height="80" as="geometry" />
        </mxCell>
        <mxCell id="yQn8MfotT0m3Hae0XQfb-40" value="" style="endArrow=none;html=1;strokeWidth=3;fontSize=25;curved=1;exitX=1;exitY=0.5;exitDx=0;exitDy=0;entryX=0;entryY=0.5;entryDx=0;entryDy=0;startArrow=none;" parent="Lyhg9dJuoTREm1i18HMX-71" source="yQn8MfotT0m3Hae0XQfb-53" target="yQn8MfotT0m3Hae0XQfb-25" edge="1">
          <mxGeometry width="50" height="50" relative="1" as="geometry">
            <mxPoint x="299" y="250" as="sourcePoint" />
            <mxPoint x="349" y="200" as="targetPoint" />
          </mxGeometry>
        </mxCell>
        <mxCell id="yQn8MfotT0m3Hae0XQfb-41" value="" style="endArrow=classic;html=1;strokeWidth=3;fontSize=25;curved=1;exitX=1;exitY=1;exitDx=0;exitDy=0;startArrow=none;" parent="Lyhg9dJuoTREm1i18HMX-71" source="yQn8MfotT0m3Hae0XQfb-23" target="yQn8MfotT0m3Hae0XQfb-25" edge="1">
          <mxGeometry width="50" height="50" relative="1" as="geometry">
            <mxPoint x="75.53553390603429" y="136.5355339060343" as="sourcePoint" />
            <mxPoint x="349" y="200" as="targetPoint" />
          </mxGeometry>
        </mxCell>
        <mxCell id="yQn8MfotT0m3Hae0XQfb-42" value="" style="endArrow=classic;html=1;strokeWidth=3;fontSize=25;curved=1;entryX=1;entryY=0;entryDx=0;entryDy=0;startArrow=none;" parent="Lyhg9dJuoTREm1i18HMX-71" target="yQn8MfotT0m3Hae0XQfb-24" edge="1">
          <mxGeometry width="50" height="50" relative="1" as="geometry">
            <mxPoint x="169" y="130" as="sourcePoint" />
            <mxPoint x="349" y="200" as="targetPoint" />
          </mxGeometry>
        </mxCell>
        <mxCell id="yQn8MfotT0m3Hae0XQfb-44" value="" style="endArrow=none;html=1;rounded=0;fontSize=25;exitX=0.5;exitY=1;exitDx=0;exitDy=0;entryX=0.5;entryY=0;entryDx=0;entryDy=0;strokeWidth=3;" parent="Lyhg9dJuoTREm1i18HMX-71" source="yQn8MfotT0m3Hae0XQfb-23" edge="1">
          <mxGeometry width="50" height="50" relative="1" as="geometry">
            <mxPoint x="39" y="140" as="sourcePoint" />
            <mxPoint x="39" y="140" as="targetPoint" />
          </mxGeometry>
        </mxCell>
        <mxCell id="yQn8MfotT0m3Hae0XQfb-45" value="" style="ellipse;whiteSpace=wrap;html=1;aspect=fixed;fontSize=25;strokeWidth=3;" parent="Lyhg9dJuoTREm1i18HMX-71" vertex="1">
          <mxGeometry x="80" y="255" width="10" height="10" as="geometry" />
        </mxCell>
        <mxCell id="yQn8MfotT0m3Hae0XQfb-46" value="" style="endArrow=none;html=1;strokeWidth=3;fontSize=25;curved=1;exitX=1;exitY=0.5;exitDx=0;exitDy=0;entryX=0;entryY=0.5;entryDx=0;entryDy=0;" parent="Lyhg9dJuoTREm1i18HMX-71" edge="1">
          <mxGeometry width="50" height="50" relative="1" as="geometry">
            <mxPoint x="59" y="260" as="sourcePoint" />
            <mxPoint x="59" y="260" as="targetPoint" />
          </mxGeometry>
        </mxCell>
        <mxCell id="yQn8MfotT0m3Hae0XQfb-48" value="" style="endArrow=none;html=1;rounded=0;fontSize=25;exitX=0.5;exitY=1;exitDx=0;exitDy=0;entryX=0.5;entryY=0;entryDx=0;entryDy=0;strokeWidth=3;" parent="Lyhg9dJuoTREm1i18HMX-71" source="yQn8MfotT0m3Hae0XQfb-26" edge="1">
          <mxGeometry width="50" height="50" relative="1" as="geometry">
            <mxPoint x="199" y="140" as="sourcePoint" />
            <mxPoint x="199" y="140" as="targetPoint" />
          </mxGeometry>
        </mxCell>
        <mxCell id="yQn8MfotT0m3Hae0XQfb-50" value="" style="endArrow=none;html=1;strokeWidth=3;fontSize=25;curved=1;exitX=0;exitY=1;exitDx=0;exitDy=0;entryX=1;entryY=0;entryDx=0;entryDy=0;" parent="Lyhg9dJuoTREm1i18HMX-71" source="yQn8MfotT0m3Hae0XQfb-26" edge="1">
          <mxGeometry width="50" height="50" relative="1" as="geometry">
            <mxPoint x="170.71572875253787" y="128.28427124746258" as="sourcePoint" />
            <mxPoint x="170.5355339060343" y="128.46446609396548" as="targetPoint" />
          </mxGeometry>
        </mxCell>
        <mxCell id="yQn8MfotT0m3Hae0XQfb-52" value="" style="endArrow=none;html=1;strokeWidth=3;fontSize=25;curved=1;exitX=1;exitY=1;exitDx=0;exitDy=0;" parent="Lyhg9dJuoTREm1i18HMX-71" source="yQn8MfotT0m3Hae0XQfb-23" edge="1">
          <mxGeometry width="50" height="50" relative="1" as="geometry">
            <mxPoint x="67.28427124746213" y="128.28427124746213" as="sourcePoint" />
            <mxPoint x="68.46446609396617" y="129.46446609396617" as="targetPoint" />
          </mxGeometry>
        </mxCell>
        <mxCell id="yQn8MfotT0m3Hae0XQfb-53" value="" style="ellipse;whiteSpace=wrap;html=1;aspect=fixed;fontSize=25;strokeWidth=3;" parent="Lyhg9dJuoTREm1i18HMX-71" vertex="1">
          <mxGeometry x="148" y="255" width="10" height="10" as="geometry" />
        </mxCell>
        <mxCell id="yQn8MfotT0m3Hae0XQfb-54" value="" style="endArrow=none;html=1;strokeWidth=3;fontSize=25;curved=1;exitX=1;exitY=0.5;exitDx=0;exitDy=0;entryX=0;entryY=0.5;entryDx=0;entryDy=0;startArrow=none;" parent="Lyhg9dJuoTREm1i18HMX-71" source="yQn8MfotT0m3Hae0XQfb-45" target="yQn8MfotT0m3Hae0XQfb-53" edge="1">
          <mxGeometry width="50" height="50" relative="1" as="geometry">
            <mxPoint x="89" y="260" as="sourcePoint" />
            <mxPoint x="159" y="260" as="targetPoint" />
          </mxGeometry>
        </mxCell>
        <mxCell id="yQn8MfotT0m3Hae0XQfb-60" value="&lt;font style=&quot;&quot;&gt;&lt;font size=&quot;1&quot; face=&quot;Times New Roman&quot; style=&quot;&quot;&gt;&lt;b style=&quot;font-size: 29px;&quot;&gt;(c)&amp;nbsp;&lt;/b&gt;&lt;/font&gt;&lt;/font&gt;" style="text;html=1;align=center;verticalAlign=middle;resizable=0;points=[];autosize=1;strokeColor=none;fillColor=none;fontSize=25;" parent="Lyhg9dJuoTREm1i18HMX-71" vertex="1">
          <mxGeometry x="-1" y="-13" width="60" height="50" as="geometry" />
        </mxCell>
        <mxCell id="FezqvLYPgjBrPXaxRbJU-1" value="" style="ellipse;whiteSpace=wrap;html=1;aspect=fixed;fontSize=25;strokeWidth=3;" parent="Lyhg9dJuoTREm1i18HMX-71" vertex="1">
          <mxGeometry x="34" y="141" width="10" height="10" as="geometry" />
        </mxCell>
        <mxCell id="FezqvLYPgjBrPXaxRbJU-4" value="" style="ellipse;whiteSpace=wrap;html=1;aspect=fixed;fontSize=25;strokeWidth=3;" parent="Lyhg9dJuoTREm1i18HMX-71" vertex="1">
          <mxGeometry x="67" y="127" width="10" height="10" as="geometry" />
        </mxCell>
        <mxCell id="FezqvLYPgjBrPXaxRbJU-5" value="" style="ellipse;whiteSpace=wrap;html=1;aspect=fixed;fontSize=25;strokeWidth=3;" parent="Lyhg9dJuoTREm1i18HMX-71" vertex="1">
          <mxGeometry x="162" y="127" width="10" height="10" as="geometry" />
        </mxCell>
        <mxCell id="FezqvLYPgjBrPXaxRbJU-6" value="" style="ellipse;whiteSpace=wrap;html=1;aspect=fixed;fontSize=25;strokeWidth=3;" parent="Lyhg9dJuoTREm1i18HMX-71" vertex="1">
          <mxGeometry x="194" y="141" width="10" height="10" as="geometry" />
        </mxCell>
        <mxCell id="FezqvLYPgjBrPXaxRbJU-7" value="" style="group" parent="1" vertex="1" connectable="0">
          <mxGeometry x="960" y="10" width="240" height="300" as="geometry" />
        </mxCell>
        <mxCell id="FezqvLYPgjBrPXaxRbJU-8" value="" style="endArrow=classic;html=1;rounded=0;fontSize=25;entryX=0.5;entryY=0;entryDx=0;entryDy=0;strokeWidth=3;startArrow=none;" parent="FezqvLYPgjBrPXaxRbJU-7" target="FezqvLYPgjBrPXaxRbJU-13" edge="1">
          <mxGeometry width="50" height="50" relative="1" as="geometry">
            <mxPoint x="190" y="121" as="sourcePoint" />
            <mxPoint x="460" y="231" as="targetPoint" />
          </mxGeometry>
        </mxCell>
        <mxCell id="FezqvLYPgjBrPXaxRbJU-9" value="" style="endArrow=classic;html=1;rounded=0;fontSize=25;entryX=0.5;entryY=0;entryDx=0;entryDy=0;strokeWidth=3;startArrow=none;" parent="FezqvLYPgjBrPXaxRbJU-7" target="FezqvLYPgjBrPXaxRbJU-11" edge="1">
          <mxGeometry width="50" height="50" relative="1" as="geometry">
            <mxPoint x="30" y="121" as="sourcePoint" />
            <mxPoint x="460" y="231" as="targetPoint" />
          </mxGeometry>
        </mxCell>
        <mxCell id="FezqvLYPgjBrPXaxRbJU-10" value="&lt;font face=&quot;Times New Roman&quot; style=&quot;font-size: 25px;&quot;&gt;&lt;b&gt;X&lt;sub&gt;1&lt;/sub&gt;&lt;/b&gt;&lt;/font&gt;" style="ellipse;whiteSpace=wrap;html=1;aspect=fixed;strokeWidth=2;" parent="FezqvLYPgjBrPXaxRbJU-7" vertex="1">
          <mxGeometry x="-10" y="51" width="80" height="80" as="geometry" />
        </mxCell>
        <mxCell id="FezqvLYPgjBrPXaxRbJU-11" value="&lt;font face=&quot;Times New Roman&quot;&gt;&lt;b&gt;&lt;font style=&quot;font-size: 25px;&quot;&gt;X&lt;/font&gt;&lt;font style=&quot;font-size: 20.8333px;&quot;&gt;&lt;sub&gt;2&lt;/sub&gt;&lt;/font&gt;&lt;/b&gt;&lt;/font&gt;" style="ellipse;whiteSpace=wrap;html=1;aspect=fixed;strokeWidth=2;" parent="FezqvLYPgjBrPXaxRbJU-7" vertex="1">
          <mxGeometry x="-10" y="211" width="80" height="80" as="geometry" />
        </mxCell>
        <mxCell id="FezqvLYPgjBrPXaxRbJU-12" value="" style="edgeStyle=orthogonalEdgeStyle;rounded=0;orthogonalLoop=1;jettySize=auto;html=1;strokeWidth=3;" parent="FezqvLYPgjBrPXaxRbJU-7" source="FezqvLYPgjBrPXaxRbJU-10" target="FezqvLYPgjBrPXaxRbJU-11" edge="1">
          <mxGeometry relative="1" as="geometry" />
        </mxCell>
        <mxCell id="FezqvLYPgjBrPXaxRbJU-13" value="&lt;font face=&quot;Times New Roman&quot; style=&quot;font-size: 25px;&quot;&gt;&lt;b&gt;X&lt;sub&gt;3&lt;/sub&gt;&lt;/b&gt;&lt;/font&gt;" style="ellipse;whiteSpace=wrap;html=1;aspect=fixed;strokeWidth=2;" parent="FezqvLYPgjBrPXaxRbJU-7" vertex="1">
          <mxGeometry x="150" y="211" width="80" height="80" as="geometry" />
        </mxCell>
        <mxCell id="FezqvLYPgjBrPXaxRbJU-14" value="&lt;font face=&quot;Times New Roman&quot; style=&quot;font-size: 25px;&quot;&gt;&lt;b&gt;X&lt;sub&gt;4&lt;/sub&gt;&lt;/b&gt;&lt;/font&gt;" style="ellipse;whiteSpace=wrap;html=1;aspect=fixed;strokeWidth=2;" parent="FezqvLYPgjBrPXaxRbJU-7" vertex="1">
          <mxGeometry x="150" y="51" width="80" height="80" as="geometry" />
        </mxCell>
        <mxCell id="FezqvLYPgjBrPXaxRbJU-15" value="" style="endArrow=none;html=1;strokeWidth=3;fontSize=25;curved=1;exitX=1;exitY=0.5;exitDx=0;exitDy=0;entryX=0;entryY=0.5;entryDx=0;entryDy=0;startArrow=none;" parent="FezqvLYPgjBrPXaxRbJU-7" target="FezqvLYPgjBrPXaxRbJU-13" edge="1">
          <mxGeometry width="50" height="50" relative="1" as="geometry">
            <mxPoint x="150" y="251" as="sourcePoint" />
            <mxPoint x="340" y="191" as="targetPoint" />
          </mxGeometry>
        </mxCell>
        <mxCell id="FezqvLYPgjBrPXaxRbJU-16" value="" style="endArrow=classic;html=1;strokeWidth=3;fontSize=25;curved=1;exitX=1;exitY=1;exitDx=0;exitDy=0;startArrow=none;" parent="FezqvLYPgjBrPXaxRbJU-7" source="FezqvLYPgjBrPXaxRbJU-10" target="FezqvLYPgjBrPXaxRbJU-13" edge="1">
          <mxGeometry width="50" height="50" relative="1" as="geometry">
            <mxPoint x="66.53553390603429" y="127.53553390603429" as="sourcePoint" />
            <mxPoint x="340" y="191" as="targetPoint" />
          </mxGeometry>
        </mxCell>
        <mxCell id="FezqvLYPgjBrPXaxRbJU-17" value="" style="endArrow=classic;html=1;strokeWidth=3;fontSize=25;curved=1;entryX=1;entryY=0;entryDx=0;entryDy=0;startArrow=none;" parent="FezqvLYPgjBrPXaxRbJU-7" target="FezqvLYPgjBrPXaxRbJU-11" edge="1">
          <mxGeometry width="50" height="50" relative="1" as="geometry">
            <mxPoint x="160" y="121" as="sourcePoint" />
            <mxPoint x="340" y="191" as="targetPoint" />
          </mxGeometry>
        </mxCell>
        <mxCell id="FezqvLYPgjBrPXaxRbJU-18" value="" style="endArrow=none;html=1;rounded=0;fontSize=25;exitX=0.5;exitY=1;exitDx=0;exitDy=0;entryX=0.5;entryY=0;entryDx=0;entryDy=0;strokeWidth=3;" parent="FezqvLYPgjBrPXaxRbJU-7" source="FezqvLYPgjBrPXaxRbJU-10" edge="1">
          <mxGeometry width="50" height="50" relative="1" as="geometry">
            <mxPoint x="30" y="131" as="sourcePoint" />
            <mxPoint x="30" y="131" as="targetPoint" />
          </mxGeometry>
        </mxCell>
        <mxCell id="FezqvLYPgjBrPXaxRbJU-20" value="" style="endArrow=none;html=1;strokeWidth=3;fontSize=25;curved=1;exitX=1;exitY=0.5;exitDx=0;exitDy=0;entryX=0;entryY=0.5;entryDx=0;entryDy=0;" parent="FezqvLYPgjBrPXaxRbJU-7" edge="1">
          <mxGeometry width="50" height="50" relative="1" as="geometry">
            <mxPoint x="50" y="251" as="sourcePoint" />
            <mxPoint x="50" y="251" as="targetPoint" />
          </mxGeometry>
        </mxCell>
        <mxCell id="FezqvLYPgjBrPXaxRbJU-21" value="" style="endArrow=none;html=1;rounded=0;fontSize=25;exitX=0.5;exitY=1;exitDx=0;exitDy=0;entryX=0.5;entryY=0;entryDx=0;entryDy=0;strokeWidth=3;" parent="FezqvLYPgjBrPXaxRbJU-7" source="FezqvLYPgjBrPXaxRbJU-14" edge="1">
          <mxGeometry width="50" height="50" relative="1" as="geometry">
            <mxPoint x="190" y="131" as="sourcePoint" />
            <mxPoint x="190" y="131" as="targetPoint" />
          </mxGeometry>
        </mxCell>
        <mxCell id="FezqvLYPgjBrPXaxRbJU-22" value="" style="endArrow=none;html=1;strokeWidth=3;fontSize=25;curved=1;exitX=0;exitY=1;exitDx=0;exitDy=0;entryX=1;entryY=0;entryDx=0;entryDy=0;" parent="FezqvLYPgjBrPXaxRbJU-7" source="FezqvLYPgjBrPXaxRbJU-14" edge="1">
          <mxGeometry width="50" height="50" relative="1" as="geometry">
            <mxPoint x="161.71572875253787" y="119.28427124746258" as="sourcePoint" />
            <mxPoint x="161.5355339060343" y="119.46446609396548" as="targetPoint" />
          </mxGeometry>
        </mxCell>
        <mxCell id="FezqvLYPgjBrPXaxRbJU-23" value="" style="endArrow=none;html=1;strokeWidth=3;fontSize=25;curved=1;exitX=1;exitY=1;exitDx=0;exitDy=0;" parent="FezqvLYPgjBrPXaxRbJU-7" source="FezqvLYPgjBrPXaxRbJU-10" edge="1">
          <mxGeometry width="50" height="50" relative="1" as="geometry">
            <mxPoint x="58.28427124746213" y="119.28427124746213" as="sourcePoint" />
            <mxPoint x="59.464466093966166" y="120.46446609396617" as="targetPoint" />
          </mxGeometry>
        </mxCell>
        <mxCell id="FezqvLYPgjBrPXaxRbJU-25" value="" style="endArrow=none;html=1;strokeWidth=3;fontSize=25;curved=1;exitX=1;exitY=0.5;exitDx=0;exitDy=0;entryX=0;entryY=0.5;entryDx=0;entryDy=0;startArrow=none;" parent="FezqvLYPgjBrPXaxRbJU-7" source="FezqvLYPgjBrPXaxRbJU-11" target="FezqvLYPgjBrPXaxRbJU-13" edge="1">
          <mxGeometry width="50" height="50" relative="1" as="geometry">
            <mxPoint x="80" y="251" as="sourcePoint" />
            <mxPoint x="140" y="251" as="targetPoint" />
          </mxGeometry>
        </mxCell>
        <mxCell id="FezqvLYPgjBrPXaxRbJU-27" value="" style="ellipse;whiteSpace=wrap;html=1;aspect=fixed;fontSize=25;strokeWidth=3;" parent="FezqvLYPgjBrPXaxRbJU-7" vertex="1">
          <mxGeometry x="25" y="132" width="10" height="10" as="geometry" />
        </mxCell>
        <mxCell id="FezqvLYPgjBrPXaxRbJU-28" value="" style="ellipse;whiteSpace=wrap;html=1;aspect=fixed;fontSize=25;strokeWidth=3;" parent="FezqvLYPgjBrPXaxRbJU-7" vertex="1">
          <mxGeometry x="59" y="119" width="10" height="10" as="geometry" />
        </mxCell>
        <mxCell id="FezqvLYPgjBrPXaxRbJU-29" value="" style="ellipse;whiteSpace=wrap;html=1;aspect=fixed;fontSize=25;strokeWidth=3;" parent="FezqvLYPgjBrPXaxRbJU-7" vertex="1">
          <mxGeometry x="152" y="118" width="10" height="10" as="geometry" />
        </mxCell>
        <mxCell id="FezqvLYPgjBrPXaxRbJU-30" value="" style="ellipse;whiteSpace=wrap;html=1;aspect=fixed;fontSize=25;strokeWidth=3;" parent="FezqvLYPgjBrPXaxRbJU-7" vertex="1">
          <mxGeometry x="185" y="133" width="10" height="10" as="geometry" />
        </mxCell>
        <mxCell id="FezqvLYPgjBrPXaxRbJU-26" value="&lt;font style=&quot;&quot;&gt;&lt;font size=&quot;1&quot; face=&quot;Times New Roman&quot; style=&quot;&quot;&gt;&lt;b style=&quot;font-size: 29px;&quot;&gt;(d)&amp;nbsp;&lt;/b&gt;&lt;/font&gt;&lt;/font&gt;" style="text;html=1;align=center;verticalAlign=middle;resizable=0;points=[];autosize=1;strokeColor=none;fillColor=none;fontSize=25;" parent="FezqvLYPgjBrPXaxRbJU-7" vertex="1">
          <mxGeometry x="-6" y="-23" width="70" height="50" as="geometry" />
        </mxCell>
        <mxCell id="FezqvLYPgjBrPXaxRbJU-31" value="" style="group" parent="1" vertex="1" connectable="0">
          <mxGeometry x="-219" width="240" height="300" as="geometry" />
        </mxCell>
        <mxCell id="Lyhg9dJuoTREm1i18HMX-20" value="" style="endArrow=none;html=1;rounded=0;strokeWidth=3;exitX=1;exitY=0;exitDx=0;exitDy=0;entryX=0;entryY=1;entryDx=0;entryDy=0;" parent="FezqvLYPgjBrPXaxRbJU-31" source="Lyhg9dJuoTREm1i18HMX-16" target="yQn8MfotT0m3Hae0XQfb-5" edge="1">
          <mxGeometry width="50" height="50" relative="1" as="geometry">
            <mxPoint x="490" y="300" as="sourcePoint" />
            <mxPoint x="540" y="250" as="targetPoint" />
          </mxGeometry>
        </mxCell>
        <mxCell id="Lyhg9dJuoTREm1i18HMX-12" value="" style="endArrow=none;html=1;rounded=0;entryX=0.5;entryY=0;entryDx=0;entryDy=0;strokeWidth=3;" parent="FezqvLYPgjBrPXaxRbJU-31" target="yQn8MfotT0m3Hae0XQfb-3" edge="1">
          <mxGeometry width="50" height="50" relative="1" as="geometry">
            <mxPoint x="40" y="146" as="sourcePoint" />
            <mxPoint x="540" y="250" as="targetPoint" />
          </mxGeometry>
        </mxCell>
        <mxCell id="yQn8MfotT0m3Hae0XQfb-58" value="&lt;font style=&quot;&quot;&gt;&lt;font size=&quot;1&quot; face=&quot;Times New Roman&quot; style=&quot;&quot;&gt;&lt;b style=&quot;font-size: 30px;&quot;&gt;(a)&amp;nbsp;&lt;/b&gt;&lt;/font&gt;&lt;/font&gt;" style="text;html=1;align=center;verticalAlign=middle;resizable=0;points=[];autosize=1;strokeColor=none;fillColor=none;fontSize=25;" parent="FezqvLYPgjBrPXaxRbJU-31" vertex="1">
          <mxGeometry x="-5" y="-13" width="70" height="50" as="geometry" />
        </mxCell>
        <mxCell id="yQn8MfotT0m3Hae0XQfb-2" value="&lt;font face=&quot;Times New Roman&quot; style=&quot;font-size: 25px;&quot;&gt;&lt;b&gt;X&lt;sub&gt;1&lt;/sub&gt;&lt;/b&gt;&lt;/font&gt;" style="ellipse;whiteSpace=wrap;html=1;aspect=fixed;strokeWidth=2;" parent="FezqvLYPgjBrPXaxRbJU-31" vertex="1">
          <mxGeometry y="60" width="80" height="80" as="geometry" />
        </mxCell>
        <mxCell id="yQn8MfotT0m3Hae0XQfb-3" value="&lt;font face=&quot;Times New Roman&quot;&gt;&lt;b&gt;&lt;font style=&quot;font-size: 25px;&quot;&gt;X&lt;/font&gt;&lt;font style=&quot;font-size: 20.8333px;&quot;&gt;&lt;sub&gt;2&lt;/sub&gt;&lt;/font&gt;&lt;/b&gt;&lt;/font&gt;" style="ellipse;whiteSpace=wrap;html=1;aspect=fixed;strokeWidth=2;" parent="FezqvLYPgjBrPXaxRbJU-31" vertex="1">
          <mxGeometry y="220" width="80" height="80" as="geometry" />
        </mxCell>
        <mxCell id="yQn8MfotT0m3Hae0XQfb-4" value="&lt;font face=&quot;Times New Roman&quot; style=&quot;font-size: 25px;&quot;&gt;&lt;b&gt;X&lt;sub&gt;3&lt;/sub&gt;&lt;/b&gt;&lt;/font&gt;" style="ellipse;whiteSpace=wrap;html=1;aspect=fixed;strokeWidth=2;" parent="FezqvLYPgjBrPXaxRbJU-31" vertex="1">
          <mxGeometry x="160" y="220" width="80" height="80" as="geometry" />
        </mxCell>
        <mxCell id="Lyhg9dJuoTREm1i18HMX-21" value="" style="endArrow=none;html=1;rounded=0;strokeWidth=3;exitX=1;exitY=0.5;exitDx=0;exitDy=0;entryX=0;entryY=0.5;entryDx=0;entryDy=0;" parent="FezqvLYPgjBrPXaxRbJU-31" source="yQn8MfotT0m3Hae0XQfb-3" target="yQn8MfotT0m3Hae0XQfb-4" edge="1">
          <mxGeometry width="50" height="50" relative="1" as="geometry">
            <mxPoint x="490" y="300" as="sourcePoint" />
            <mxPoint x="160" y="264" as="targetPoint" />
          </mxGeometry>
        </mxCell>
        <mxCell id="yQn8MfotT0m3Hae0XQfb-5" value="&lt;font face=&quot;Times New Roman&quot; style=&quot;font-size: 25px;&quot;&gt;&lt;b&gt;X&lt;sub&gt;4&lt;/sub&gt;&lt;/b&gt;&lt;/font&gt;" style="ellipse;whiteSpace=wrap;html=1;aspect=fixed;strokeWidth=2;" parent="FezqvLYPgjBrPXaxRbJU-31" vertex="1">
          <mxGeometry x="160" y="60" width="80" height="80" as="geometry" />
        </mxCell>
        <mxCell id="Lyhg9dJuoTREm1i18HMX-1" value="" style="ellipse;whiteSpace=wrap;html=1;aspect=fixed;fontSize=25;strokeWidth=3;" parent="FezqvLYPgjBrPXaxRbJU-31" vertex="1">
          <mxGeometry x="36" y="141" width="10" height="10" as="geometry" />
        </mxCell>
        <mxCell id="Lyhg9dJuoTREm1i18HMX-3" value="" style="ellipse;whiteSpace=wrap;html=1;aspect=fixed;fontSize=25;strokeWidth=3;" parent="FezqvLYPgjBrPXaxRbJU-31" vertex="1">
          <mxGeometry x="35" y="210" width="10" height="10" as="geometry" />
        </mxCell>
        <mxCell id="Lyhg9dJuoTREm1i18HMX-5" value="" style="ellipse;whiteSpace=wrap;html=1;aspect=fixed;fontSize=25;strokeWidth=3;" parent="FezqvLYPgjBrPXaxRbJU-31" vertex="1">
          <mxGeometry x="80" y="95" width="10" height="10" as="geometry" />
        </mxCell>
        <mxCell id="Lyhg9dJuoTREm1i18HMX-6" value="" style="ellipse;whiteSpace=wrap;html=1;aspect=fixed;fontSize=25;strokeWidth=3;" parent="FezqvLYPgjBrPXaxRbJU-31" vertex="1">
          <mxGeometry x="150" y="95" width="10" height="10" as="geometry" />
        </mxCell>
        <mxCell id="Lyhg9dJuoTREm1i18HMX-7" value="" style="ellipse;whiteSpace=wrap;html=1;aspect=fixed;fontSize=25;strokeWidth=3;" parent="FezqvLYPgjBrPXaxRbJU-31" vertex="1">
          <mxGeometry x="80" y="255" width="10" height="10" as="geometry" />
        </mxCell>
        <mxCell id="Lyhg9dJuoTREm1i18HMX-8" value="" style="ellipse;whiteSpace=wrap;html=1;aspect=fixed;fontSize=25;strokeWidth=3;" parent="FezqvLYPgjBrPXaxRbJU-31" vertex="1">
          <mxGeometry x="149" y="255" width="10" height="10" as="geometry" />
        </mxCell>
        <mxCell id="Lyhg9dJuoTREm1i18HMX-9" value="" style="ellipse;whiteSpace=wrap;html=1;aspect=fixed;fontSize=25;strokeWidth=3;" parent="FezqvLYPgjBrPXaxRbJU-31" vertex="1">
          <mxGeometry x="195" y="141" width="10" height="10" as="geometry" />
        </mxCell>
        <mxCell id="Lyhg9dJuoTREm1i18HMX-10" value="" style="ellipse;whiteSpace=wrap;html=1;aspect=fixed;fontSize=25;strokeWidth=3;" parent="FezqvLYPgjBrPXaxRbJU-31" vertex="1">
          <mxGeometry x="195" y="210" width="10" height="10" as="geometry" />
        </mxCell>
        <mxCell id="Lyhg9dJuoTREm1i18HMX-13" value="" style="endArrow=none;html=1;rounded=0;strokeWidth=3;exitX=1;exitY=0.5;exitDx=0;exitDy=0;entryX=0;entryY=0.5;entryDx=0;entryDy=0;" parent="FezqvLYPgjBrPXaxRbJU-31" source="Lyhg9dJuoTREm1i18HMX-5" target="Lyhg9dJuoTREm1i18HMX-6" edge="1">
          <mxGeometry width="50" height="50" relative="1" as="geometry">
            <mxPoint x="490" y="300" as="sourcePoint" />
            <mxPoint x="540" y="250" as="targetPoint" />
          </mxGeometry>
        </mxCell>
        <mxCell id="Lyhg9dJuoTREm1i18HMX-14" value="" style="ellipse;whiteSpace=wrap;html=1;aspect=fixed;fontSize=25;strokeWidth=3;" parent="FezqvLYPgjBrPXaxRbJU-31" vertex="1">
          <mxGeometry x="67" y="127" width="10" height="10" as="geometry" />
        </mxCell>
        <mxCell id="Lyhg9dJuoTREm1i18HMX-15" value="" style="ellipse;whiteSpace=wrap;html=1;aspect=fixed;fontSize=25;strokeWidth=3;" parent="FezqvLYPgjBrPXaxRbJU-31" vertex="1">
          <mxGeometry x="158" y="226" width="10" height="10" as="geometry" />
        </mxCell>
        <mxCell id="Lyhg9dJuoTREm1i18HMX-16" value="" style="ellipse;whiteSpace=wrap;html=1;aspect=fixed;fontSize=25;strokeWidth=3;" parent="FezqvLYPgjBrPXaxRbJU-31" vertex="1">
          <mxGeometry x="70" y="226" width="10" height="10" as="geometry" />
        </mxCell>
        <mxCell id="Lyhg9dJuoTREm1i18HMX-17" value="" style="ellipse;whiteSpace=wrap;html=1;aspect=fixed;fontSize=25;strokeWidth=3;" parent="FezqvLYPgjBrPXaxRbJU-31" vertex="1">
          <mxGeometry x="162" y="127" width="10" height="10" as="geometry" />
        </mxCell>
        <mxCell id="Lyhg9dJuoTREm1i18HMX-18" value="" style="endArrow=none;html=1;rounded=0;strokeWidth=3;exitX=1;exitY=1;exitDx=0;exitDy=0;entryX=0;entryY=0;entryDx=0;entryDy=0;" parent="FezqvLYPgjBrPXaxRbJU-31" source="Lyhg9dJuoTREm1i18HMX-14" target="Lyhg9dJuoTREm1i18HMX-15" edge="1">
          <mxGeometry width="50" height="50" relative="1" as="geometry">
            <mxPoint x="490" y="300" as="sourcePoint" />
            <mxPoint x="160" y="230" as="targetPoint" />
          </mxGeometry>
        </mxCell>
        <mxCell id="Lyhg9dJuoTREm1i18HMX-22" value="" style="endArrow=none;html=1;rounded=0;strokeWidth=3;exitX=0.5;exitY=1;exitDx=0;exitDy=0;entryX=0.5;entryY=0;entryDx=0;entryDy=0;" parent="FezqvLYPgjBrPXaxRbJU-31" source="Lyhg9dJuoTREm1i18HMX-9" target="Lyhg9dJuoTREm1i18HMX-10" edge="1">
          <mxGeometry width="50" height="50" relative="1" as="geometry">
            <mxPoint x="490" y="300" as="sourcePoint" />
            <mxPoint x="200" y="200" as="targetPoint" />
          </mxGeometry>
        </mxCell>
      </root>
    </mxGraphModel>
  </diagram>
</mxfile>
